<?xml version="1.0" encoding="utf-8"?>
<!-- Generator: Adobe Illustrator 23.1.0, SVG Export Plug-In . SVG Version: 6.00 Build 0)  -->
<svg version="1.1" id="Layer_1" xmlns="http://www.w3.org/2000/svg" xmlns:xlink="http://www.w3.org/1999/xlink" x="0px" y="0px"
	 viewBox="0 0 1024 243" style="enable-background:new 0 0 1024 243;" xml:space="preserve">
<style type="text/css">
	.st0{fill:#5E6367;}
	.st1{fill:#D8DCDB;}
</style>
<g>
	<path class="st0" d="M154.9,63.5L154.9,63.5c-7.2,4-16.3,1.4-20.4-5.8c-4-7.2-1.4-16.3,5.8-20.4c7.2-4,16.3-1.4,20.4,5.8
		c1.3,2.3,1.9,4.8,1.9,7.3C162.6,55.7,159.9,60.8,154.9,63.5z M176.5,150.4c-7.2,4-9.8,13.2-5.8,20.4c4,7.2,13.2,9.8,20.4,5.8h0
		c4.9-2.7,7.7-7.8,7.7-13.1c0-2.5-0.6-5-1.9-7.3C192.8,149,183.7,146.4,176.5,150.4z M204.9,89.6c0-2.3,0.3-4.6,1-6.8
		c0.2-0.8,0.5-1.5,0.8-2.3l-38.3-16c-2.1,3.1-5,5.9-8.5,7.8h0c-0.7,0.4-1.3,0.7-2,1l22.3,65.5c4.1-0.6,8.3-0.2,12.1,1.2l20.6-32.2
		c-1.9-1.7-3.5-3.8-4.7-6.1C206,97.9,204.9,93.8,204.9,89.6z M311.6,136.4c0,35.6-28.8,64.4-64.4,64.4H64.4
		C28.8,200.8,0,172,0,136.4c0-35.6,28.8-64.4,64.4-64.4c5,0,9.9,0.6,14.6,1.7c11.7-42.3,50.5-73.4,96.6-73.4
		c47.4,0,87.1,32.9,97.5,77.1C295.8,87.4,311.6,110.1,311.6,136.4z M251.7,77.3c-3.3-5.8-8.6-10-15-11.9c-6.4-1.8-13.2-1-19,2.2
		c-2.1,1.2-3.9,2.6-5.5,4.2l-40-16.7c1.1-5.6,0.3-11.6-2.7-16.9c-6.7-12-22-16.3-34-9.6c-8.2,4.6-12.8,13.1-12.8,21.8
		c0,4.1,1,8.3,3.2,12.1c4.6,8.3,13.2,12.9,22.1,12.8l22.7,66.8c-3.8,2.3-6.7,5.5-8.7,9.2l-52.6-18c0.9-6.5-0.2-13.3-3.6-19.5
		c-8.4-15-27.3-20.4-42.4-12c-15,8.4-20.4,27.3-12,42.4c8.4,15,27.3,20.4,42.4,12c5.7-3.2,10-7.9,12.7-13.3l52.5,18
		c-0.1,0.8-0.2,1.7-0.2,2.5c0,4.1,1,8.3,3.2,12.1c6.7,12,22,16.3,34,9.6h0c12-6.7,16.3-22,9.6-34c-1.3-2.3-2.9-4.4-4.8-6.1
		l20.6-32.2c0.6,0.2,1.1,0.4,1.7,0.6c6.4,1.8,13.2,1,19-2.2c5.8-3.3,10-8.6,11.9-15C255.7,89.9,254.9,83.2,251.7,77.3z M234,75.1
		c-3.8-1.1-7.9-0.6-11.4,1.3c-7.2,4-9.8,13.2-5.8,20.4c1.9,3.5,5.1,6,9,7.1c3.8,1.1,7.9,0.6,11.4-1.3l0,0c3.5-1.9,6-5.1,7.1-9
		c0.4-1.4,0.6-2.7,0.6-4.1c0-2.5-0.6-5-1.9-7.3C241,78.7,237.8,76.2,234,75.1z M407.9,100.6h-29l-19.5,100.2h29L407.9,100.6z
		 M414.6,70.1c0-6.3-5.6-11.9-13.2-11.9c-10.2,0-17.9,7.4-17.9,15.4c0,6.5,5.6,11.9,13.2,11.9C406.9,85.5,414.6,78.1,414.6,70.1z
		 M510.1,126.2c0-16.4-11.9-27.5-38.9-27.5c-15.8,0-29.6,2.4-42,7.2L411,200.8h29l15.8-82.2c3.7-1.3,7.6-2,12.1-2
		c9.5,0,13.4,4.1,13.4,11.2c0,1.9-0.4,4.1-0.7,6.1l-12.8,66.9h29l12.6-65.4C510,132.2,510.1,129.4,510.1,126.2z M586.4,100.6h-15.6
		l5.8-29l-30.7,7.6l-4.1,21.4H531l-3.5,18.6h10.8l-9.9,51.1c-0.6,2.8-0.9,6.1-0.9,8.6c0,14.3,9.1,23.6,25.1,23.6
		c5.8,0,11-1.3,14.5-3l3.7-18.4c-1.9,0.7-4.3,1.3-6.5,1.3c-4.5,0-7.6-2.4-7.6-6.9c0-1.1,0.2-2.6,0.6-4.6l10-51.7h15.4L586.4,100.6z
		 M679.9,134.2c0-21.9-12.3-35.7-35.5-35.7c-40.5,0-56,37-56,63.2c0,25.8,14.3,41.1,40.7,41.1c13,0,26.8-2.6,36.8-7.4l-3.2-18.6
		c-7.1,3.2-17.1,5.8-26.2,5.8c-13.4,0-20.8-7.1-20.8-19.7v-2.2l61.9-8.6C679.2,145.6,679.9,139.8,679.9,134.2z M653.4,130.5
		c0,3-0.2,6.5-0.9,10.4l-35.9,5.6c3-18.4,11.5-31,24.2-31C649.4,115.5,653.4,120.8,653.4,130.5z M789.3,105.8
		c-8.6-4.6-21.8-7.3-34.6-7.3c-50.9,0-62.8,42-62.8,65.6c0,21.9,12.3,36.8,33.1,36.8c6.9,0,13.6-1.1,17.9-3.2l-0.9,4.5
		c-2.4,11.7-10.2,19.7-24.7,19.7c-8.4,0-17.3-1.9-24-5.4L682.6,235c9.7,5,23.1,7.6,37.2,7.6c27.9,0,45.7-14.3,51.3-42.8L789.3,105.8
		z M758.4,117.1l-12.6,64.7c-2.8,1.3-6.3,2.2-10.2,2.2c-11.2,0-15.4-7.2-15.4-19.5c0-9.3,3.2-23.1,6.9-31.6
		c5.2-11.7,12.6-17.5,22.7-17.5C753.2,115.5,756,116,758.4,117.1z M866.3,99.3c-3.5-0.4-8.6-0.7-12.6-0.7c-17.8,0-31.8,2.6-42.4,7.4
		l-18.4,94.8h29l16-82.4c2.6-0.9,5.8-1.5,9.1-1.5c3.5,0,7.1,0.6,10.2,2L866.3,99.3z M908.5,100.6h-29L860,200.8h29L908.5,100.6z
		 M915.2,70.1c0-6.3-5.6-11.9-13.2-11.9c-10.2,0-17.8,7.4-17.8,15.4c0,6.5,5.6,11.9,13.2,11.9C907.6,85.5,915.2,78.1,915.2,70.1z
		 M1024,54.8h-28.8l-8.9,46.1c-4.1-1.1-8.9-1.7-13.8-1.7c-38.1,0-56,35.9-56,65.1c0,24,14.9,38.5,40.5,38.5
		c15.4,0,29.4-2.4,39.8-7.4L1024,54.8z M983.3,116.9l-13,66c-2.4,0.9-5.8,1.7-9.1,1.7c-11.2,0-16.2-7.8-16.2-20.3
		c0-9.9,3.2-22.9,7.3-31.8c5-10.8,12.5-16.9,22.9-16.9C978.1,115.6,980.7,116.2,983.3,116.9z"/>
	<g>
		<polygon class="st1" points="265.7,198.1 265.7,198.1 265.7,198.1 		"/>
		<path class="st1" d="M236.7,65.5c-6.4-1.8-13.2-1-19,2.2c-2.1,1.2-3.9,2.6-5.5,4.2l-40-16.7c1.1-5.6,0.3-11.6-2.7-16.9
			c-6.7-12-22-16.3-34-9.6c-8.2,4.6-12.8,13.1-12.8,21.8c0,4.1,1,8.3,3.2,12.1c4.6,8.3,13.2,12.9,22.1,12.8l22.7,66.8
			c-3.8,2.3-6.7,5.5-8.7,9.2l-52.6-18c0.9-6.5-0.2-13.3-3.6-19.5c-8.4-15-27.3-20.4-42.4-12c-8.9,5-14.4,13.6-15.7,22.9v8.5
			c0.5,3.7,1.7,7.4,3.7,10.9c8.4,15,27.3,20.4,42.4,12c5.7-3.2,10-7.9,12.7-13.3l52.5,18c-0.1,0.8-0.2,1.7-0.2,2.5
			c0,4.1,1,8.3,3.2,12.1c6.7,12,22,16.3,34,9.6h0c12-6.7,16.3-22,9.6-34c-1.3-2.3-2.9-4.4-4.8-6.1l20.6-32.2
			c0.6,0.2,1.1,0.4,1.7,0.6c6.4,1.8,13.2,1,19-2.2c5.8-3.3,10-8.6,11.9-15c1.8-6.4,1-13.2-2.2-19C248.4,71.5,243.1,67.3,236.7,65.5z
			 M134.6,57.8c-4-7.2-1.4-16.3,5.8-20.4c7.2-4,16.3-1.4,20.4,5.8c1.3,2.3,1.9,4.8,1.9,7.3c0,5.3-2.8,10.4-7.7,13.1h0
			C147.7,67.6,138.6,65,134.6,57.8z M191.1,176.5L191.1,176.5c-7.2,4-16.3,1.4-20.4-5.8c-4-7.2-1.4-16.3,5.8-20.4
			c7.2-4,16.3-1.4,20.4,5.8c1.3,2.3,1.9,4.8,1.9,7.3C198.7,168.7,196,173.8,191.1,176.5z M192.2,140c-3.9-1.4-8-1.8-12.1-1.2
			l-22.3-65.5c0.7-0.3,1.4-0.6,2-1h0c3.5-2,6.4-4.7,8.5-7.8l38.3,16c-0.3,0.7-0.5,1.5-0.8,2.3c-0.6,2.3-1,4.6-1,6.8
			c0,4.2,1.1,8.4,3.2,12.1c1.3,2.3,2.9,4.3,4.7,6.1L192.2,140z M244.3,93.6c-1.1,3.8-3.6,7-7.1,9l0,0c-3.5,1.9-7.5,2.4-11.4,1.3
			c-3.8-1.1-7-3.6-9-7.1c-4-7.2-1.4-16.3,5.8-20.4c3.5-1.9,7.5-2.4,11.4-1.3c3.8,1.1,7,3.6,9,7.1c1.3,2.3,1.9,4.8,1.9,7.3
			C244.9,90.9,244.7,92.2,244.3,93.6z"/>
	</g>
</g>
</svg>
