<?xml version="1.0" encoding="utf-8"?>
<!-- Generator: Adobe Illustrator 23.1.0, SVG Export Plug-In . SVG Version: 6.00 Build 0)  -->
<svg version="1.1" id="Layer_1" xmlns="http://www.w3.org/2000/svg" xmlns:xlink="http://www.w3.org/1999/xlink" x="0px" y="0px"
	 viewBox="0 0 1024 656" style="enable-background:new 0 0 1024 656;" xml:space="preserve">
<style type="text/css">
	.st0{fill:#5E6367;}
	.st1{fill:#D8DCDB;}
</style>
<g>
	<g>
		<g>
			<path class="st0" d="M569.1,89.2c0-4.4-1.1-8.8-3.4-12.9c-7.2-12.8-23.4-17.4-36.2-10.3c-12.8,7.1-17.4,23.4-10.3,36.2
				c7.1,12.8,23.4,17.4,36.2,10.3h0C564.2,107.6,569.1,98.6,569.1,89.2z"/>
			<path class="st0" d="M593.8,266.9c-12.8,7.1-17.4,23.4-10.3,36.2c7.1,12.8,23.4,17.4,36.2,10.3h0c8.7-4.9,13.6-13.9,13.6-23.3
				c0-4.4-1.1-8.8-3.4-12.9C622.8,264.4,606.6,259.8,593.8,266.9z"/>
			<path class="st0" d="M644.3,158.8c0-4.1,0.6-8.2,1.7-12.2c0.4-1.4,0.8-2.7,1.3-4l-68.1-28.4c-3.8,5.6-8.8,10.4-15.1,13.9h0
				c-1.2,0.7-2.4,1.2-3.6,1.8l39.6,116.5c7.3-1.1,14.7-0.3,21.6,2.1l36.7-57.3c-3.3-3.1-6.2-6.7-8.4-10.8
				C646.2,173.6,644.3,166.2,644.3,158.8z"/>
			<path class="st0" d="M765.6,137.3C747,58.7,676.4,0.2,592.1,0.2c-81.9,0-150.9,55.3-171.7,130.6c-8.4-1.9-17-3.1-26-3.1
				c-63.2,0-114.5,51.3-114.5,114.5c0,63.2,51.3,114.5,114.5,114.5h325.2c63.2,0,114.5-51.3,114.5-114.5
				C834.1,195.2,805.9,155,765.6,137.3z M731.5,170.8c-3.2,11.4-10.7,20.9-21.1,26.7c-10.4,5.8-22.3,7.2-33.8,3.9c-1-0.3-2-0.7-3-1
				L637,257.7c3.3,3.1,6.2,6.7,8.5,10.9c11.9,21.4,4.3,48.5-17.1,60.4h0c-21.4,11.9-48.5,4.2-60.4-17.1c-3.8-6.8-5.6-14.3-5.6-21.6
				c0-1.5,0.1-3,0.3-4.5l-93.4-31.9c-4.8,9.7-12.4,18-22.6,23.7c-26.7,14.9-60.4,5.3-75.3-21.4c-14.9-26.7-5.3-60.4,21.4-75.3
				c26.7-14.9,60.4-5.3,75.3,21.4c6.1,11,8,23.1,6.4,34.6l93.5,32c3.6-6.5,8.8-12.1,15.5-16.3L543,133.7
				c-15.7,0.2-31.1-8.1-39.3-22.8c-3.8-6.8-5.6-14.3-5.6-21.6c0-15.6,8.2-30.7,22.8-38.9c21.4-11.9,48.5-4.3,60.4,17.1
				c5.3,9.5,6.7,20.1,4.8,30.1l71.2,29.7c2.9-2.9,6.2-5.4,9.9-7.5c10.4-5.8,22.3-7.2,33.8-3.9c11.4,3.2,20.9,10.7,26.7,21.1
				C733.3,147.4,734.7,159.4,731.5,170.8z"/>
			<path class="st0" d="M696,133.1c-6.8-1.9-14-1.1-20.2,2.4c-12.8,7.2-17.4,23.4-10.3,36.2c3.5,6.2,9.1,10.7,16,12.6
				c6.8,1.9,14,1.1,20.2-2.4l0,0c6.2-3.5,10.7-9.1,12.6-16c0.7-2.4,1-4.9,1-7.3c0-4.5-1.1-8.9-3.4-12.9
				C708.5,139.5,702.8,135,696,133.1z"/>
		</g>
		<g>
			<path class="st0" d="M44.7,591.4H0L30.1,437h44.7L44.7,591.4z M57.6,413.8c-11.7,0-20.3-8.3-20.3-18.3
				c0-12.3,11.7-23.8,27.5-23.8c11.7,0,20.3,8.6,20.3,18.3C85.1,402.3,73.3,413.8,57.6,413.8z"/>
			<path class="st0" d="M231.2,490.6l-19.5,100.8H167l19.8-103.1c0.6-3.2,1.1-6.6,1.1-9.5c0-10.9-6-17.2-20.6-17.2
				c-6.9,0-12.9,1.2-18.6,3.2l-24.4,126.6H79.7l28.1-146.1c19.2-7.4,40.4-11.2,64.7-11.2c41.5,0,59.9,17.2,59.9,42.4
				C232.3,481.4,232.1,485.7,231.2,490.6z"/>
			<path class="st0" d="M344.1,465.6h-23.8l-15.5,79.6c-0.6,3.2-0.9,5.4-0.9,7.2c0,6.9,4.9,10.6,11.7,10.6c3.4,0,7.2-0.9,10-2
				l-5.7,28.4c-5.4,2.6-13.5,4.6-22.3,4.6c-24.6,0-38.7-14.3-38.7-36.4c0-3.7,0.6-8.9,1.4-13.2l15.2-78.8H259l5.4-28.6h16.6
				l6.3-32.9l47.3-11.7l-8.9,44.7h24.1L344.1,465.6z"/>
			<path class="st0" d="M490.5,516.3l-95.4,13.2v3.4c0,19.5,11.5,30.4,32.1,30.4c14,0,29.5-4,40.4-8.9l4.9,28.6
				c-15.5,7.4-36.7,11.5-56.7,11.5c-40.7,0-62.7-23.5-62.7-63.3c0-40.4,23.8-97.4,86.2-97.4c35.8,0,54.7,21.2,54.7,55
				C493.9,497.4,492.8,506.3,490.5,516.3z M433.5,459.9c-19.5,0-32.7,19.5-37.2,47.8l55.3-8.6c1.1-6,1.4-11.5,1.4-16
				C453,468.2,447,459.9,433.5,459.9z"/>
			<path class="st0" d="M634.3,590c-8.6,43.8-36.1,65.9-79.1,65.9c-21.8,0-42.4-4-57.3-11.7l16.3-28.4c10.3,5.4,24.1,8.3,37,8.3
				c22.3,0,34.4-12.3,38.1-30.4l1.4-6.9c-6.6,3.1-16.9,4.9-27.5,4.9c-32.1,0-51-22.9-51-56.7c0-36.4,18.3-101.1,96.8-101.1
				c19.8,0,40.1,4,53.3,11.2L634.3,590z M601.4,459.9c-15.5,0-26.9,8.9-34.9,26.9c-5.7,13.2-10.6,34.4-10.6,48.7
				c0,18.9,6.6,30.1,23.8,30.1c6,0,11.5-1.4,15.8-3.4l19.5-99.7C611.1,460.8,606.8,459.9,601.4,459.9z"/>
			<path class="st0" d="M767,465.3c-4.9-2.3-10.3-3.2-15.8-3.2c-5.2,0-10,0.9-14,2.3l-24.6,126.9h-44.7l28.4-146.1
				c16.3-7.4,37.8-11.5,65.3-11.5c6.3,0,14,0.6,19.5,1.2L767,465.3z"/>
			<path class="st0" d="M816,591.4h-44.7L801.4,437h44.7L816,591.4z M828.9,413.8c-11.7,0-20.3-8.3-20.3-18.3
				c0-12.3,11.7-23.8,27.5-23.8c11.7,0,20.3,8.6,20.3,18.3C856.4,402.3,844.7,413.8,828.9,413.8z"/>
			<path class="st0" d="M982.2,583.1c-16,7.7-37.5,11.5-61.3,11.5c-39.5,0-62.4-22.3-62.4-59.3c0-45,27.5-100.3,86.2-100.3
				c7.4,0,14.9,0.9,21.2,2.6l13.7-71h44.4L982.2,583.1z M948.7,460.2c-16,0-27.5,9.5-35.2,26.1c-6.3,13.7-11.2,33.8-11.2,49
				c0,19.2,7.7,31.2,24.9,31.2c5.2,0,10.3-1.1,14-2.6l20-101.7C957.3,461,953.2,460.2,948.7,460.2z"/>
		</g>
	</g>
	<g>
		<path class="st1" d="M468,202.2c-14.9-26.7-48.6-36.3-75.3-21.4c-26.7,14.9-36.3,48.6-21.4,75.3c14.9,26.7,48.6,36.3,75.3,21.4
			c10.1-5.7,17.8-14,22.6-23.7l93.4,31.9c-0.2,1.5-0.3,3-0.3,4.5c0,7.3,1.8,14.7,5.6,21.6c11.9,21.4,39,29.1,60.4,17.1h0
			c21.4-11.9,29.1-39,17.1-60.4c-2.3-4.2-5.2-7.8-8.5-10.9l36.6-57.3c1,0.4,2,0.7,3,1c11.4,3.2,23.4,1.8,33.8-3.9
			c10.4-5.8,17.8-15.3,21.1-26.7c3.2-11.4,1.8-23.4-3.9-33.8c-5.8-10.4-15.3-17.8-26.7-21.1c-11.4-3.2-23.4-1.8-33.8,3.9
			c-3.7,2.1-7,4.6-9.9,7.5l-71.2-29.7c1.9-9.9,0.5-20.6-4.8-30.1c-11.9-21.4-39-29.1-60.4-17.1c-14.5,8.1-22.8,23.3-22.8,38.9
			c0,7.3,1.8,14.7,5.6,21.6c8.2,14.7,23.6,22.9,39.3,22.8l40.4,118.8c-6.7,4.1-12,9.8-15.5,16.3l-93.5-32
			C476,225.3,474.1,213.1,468,202.2z M675.8,135.5c6.2-3.5,13.4-4.3,20.2-2.4c6.8,1.9,12.5,6.4,16,12.6c2.2,4,3.4,8.4,3.4,12.9
			c0,2.4-0.3,4.9-1,7.3c-1.9,6.8-6.4,12.5-12.6,16l0,0c-6.2,3.5-13.4,4.3-20.2,2.4c-6.8-1.9-12.5-6.4-16-12.6
			C658.4,158.9,663,142.6,675.8,135.5z M519.3,102.2c-7.2-12.8-2.5-29.1,10.3-36.2c12.8-7.2,29-2.5,36.2,10.3
			c2.3,4.1,3.4,8.5,3.4,12.9c0,9.3-4.9,18.4-13.6,23.3h0C542.7,119.7,526.4,115.1,519.3,102.2z M560.5,129.8
			c1.2-0.5,2.4-1.1,3.6-1.8h0c6.3-3.5,11.3-8.3,15.1-13.9l68.1,28.4c-0.5,1.3-1,2.6-1.3,4c-1.1,4-1.7,8.1-1.7,12.2
			c0,7.5,1.9,14.9,5.7,21.6c2.3,4.1,5.1,7.7,8.4,10.8l-36.7,57.3c-6.9-2.5-14.3-3.2-21.6-2.1L560.5,129.8z M593.8,266.9
			c12.8-7.2,29-2.5,36.2,10.3c2.3,4.1,3.4,8.5,3.4,12.9c0,9.3-4.9,18.4-13.6,23.3h0c-12.8,7.2-29.1,2.5-36.2-10.3
			C576.3,290.3,581,274.1,593.8,266.9z"/>
		<path class="st1" d="M340.6,343.2v2.4h4.9C343.8,344.8,342.2,344,340.6,343.2z"/>
	</g>
</g>
</svg>
