<?xml version="1.0" encoding="utf-8"?>
<!-- Generator: Adobe Illustrator 23.1.0, SVG Export Plug-In . SVG Version: 6.00 Build 0)  -->
<svg version="1.1" id="Layer_1" xmlns="http://www.w3.org/2000/svg" xmlns:xlink="http://www.w3.org/1999/xlink" x="0px" y="0px"
	 viewBox="0 0 1024 659" style="enable-background:new 0 0 1024 659;" xml:space="preserve">
<style type="text/css">
	.st0{fill:#5E6367;}
	.st1{fill:#D8DCDB;}
</style>
<g>
	<g>
		<g>
			<path class="st0" d="M534.3,164.8c0-8.1-2-16.3-6.2-23.9c-13.2-23.7-43.2-32.2-66.9-19c-23.7,13.2-32.2,43.2-19,66.9
				c13.2,23.7,43.2,32.2,66.9,19h0C525.3,198.8,534.3,182,534.3,164.8z"/>
			<path class="st0" d="M579.9,493.1c-23.7,13.2-32.2,43.2-19,66.9c13.2,23.7,43.2,32.2,66.9,19h0c16.1-9,25.2-25.8,25.2-43
				c0-8.1-2-16.3-6.2-23.9C633.6,488.4,603.6,479.9,579.9,493.1z"/>
			<path class="st0" d="M673.3,293.3c0-7.5,1-15.1,3.1-22.5c0.7-2.5,1.6-5,2.5-7.4l-125.9-52.5c-7,10.3-16.3,19.2-27.9,25.7h0
				c-2.2,1.2-4.4,2.3-6.7,3.3L591.7,455c13.5-2,27.3-0.6,39.9,3.9l67.7-105.9c-6.1-5.7-11.4-12.4-15.6-19.9
				C676.8,320.7,673.3,307.1,673.3,293.3z"/>
			<path class="st0" d="M897.3,253.6C863,108.3,732.6,0.2,576.9,0.2c-151.4,0-278.8,102.2-317.3,241.3c-15.5-3.6-31.5-5.7-48.1-5.7
				C94.7,235.8,0,330.5,0,447.3c0,116.8,94.7,211.5,211.5,211.5h600.9c116.8,0,211.5-94.7,211.5-211.5
				C1024,360.7,971.9,286.3,897.3,253.6z M834.3,315.5c-6,21.1-19.8,38.6-39,49.3c-19.1,10.7-41.3,13.3-62.4,7.3
				c-1.9-0.5-3.7-1.2-5.6-1.9L659.7,476c6.1,5.7,11.5,12.4,15.8,20.1c22.1,39.5,7.9,89.6-31.7,111.7h0
				c-39.5,22.1-89.6,7.9-111.7-31.7c-7-12.6-10.4-26.3-10.4-39.9c0-2.8,0.3-5.5,0.5-8.3l-172.6-59c-8.9,17.8-23,33.3-41.7,43.7
				c-49.3,27.5-111.6,9.9-139.2-39.5c-27.5-49.3-9.9-111.6,39.5-139.2c49.3-27.5,111.6-9.9,139.2,39.5c11.3,20.2,14.9,42.7,11.9,64
				l172.7,59.1c6.6-12,16.3-22.4,28.7-30.1l-74.6-219.5c-29.1,0.3-57.5-14.9-72.6-42c-7-12.6-10.4-26.3-10.4-39.9
				c0-28.8,15.2-56.8,42-71.8c39.5-22.1,89.6-7.9,111.7,31.7c9.8,17.6,12.4,37.2,8.8,55.6l131.5,54.9c5.3-5.4,11.4-10,18.2-13.8
				c19.1-10.7,41.3-13.3,62.4-7.3c21.1,6,38.6,19.8,49.3,39C837.7,272.3,840.3,294.4,834.3,315.5z"/>
			<path class="st0" d="M768.8,245.8c-12.6-3.6-25.9-2-37.4,4.4c-23.7,13.2-32.2,43.2-19,66.9c6.4,11.5,16.9,19.8,29.5,23.3
				c12.6,3.6,25.9,2,37.4-4.4l0,0c11.5-6.4,19.8-16.9,23.3-29.5c1.3-4.5,1.9-9,1.9-13.5c0-8.3-2.1-16.5-6.3-23.9
				C791.9,257.7,781.4,249.4,768.8,245.8z"/>
		</g>
	</g>
	<g>
		<path class="st1" d="M347.5,373.5c-27.5-49.3-89.9-67-139.2-39.5c-49.3,27.5-67,89.9-39.5,139.2c27.5,49.3,89.9,67,139.2,39.5
			c18.7-10.4,32.8-25.9,41.7-43.7l172.6,59c-0.3,2.8-0.5,5.5-0.5,8.3c0,13.5,3.3,27.2,10.4,39.9c22.1,39.5,72.1,53.7,111.7,31.7h0
			c39.5-22.1,53.7-72.2,31.7-111.7c-4.3-7.7-9.7-14.4-15.8-20.1l67.7-105.8c1.8,0.7,3.7,1.3,5.6,1.9c21.1,6,43.2,3.4,62.4-7.3
			c19.1-10.7,33-28.2,39-49.3c6-21.1,3.4-43.3-7.3-62.4c-10.7-19.1-28.2-33-49.3-39c-21.1-6-43.2-3.4-62.4,7.3
			c-6.8,3.8-12.9,8.5-18.2,13.8l-131.5-54.9c3.6-18.4,1-38-8.8-55.6c-22.1-39.5-72.1-53.7-111.7-31.7c-26.9,15-42,43-42,71.8
			c0,13.5,3.3,27.2,10.4,39.9c15.2,27.1,43.5,42.3,72.6,42l74.6,219.5c-12.4,7.6-22.1,18.1-28.7,30.1l-172.7-59.1
			C362.3,416.1,358.8,393.7,347.5,373.5z M731.4,250.2c11.5-6.4,24.7-8,37.4-4.4c12.6,3.6,23.1,11.9,29.5,23.3
			c4.1,7.4,6.3,15.6,6.3,23.9c0,4.5-0.6,9-1.9,13.5c-3.6,12.6-11.9,23.1-23.3,29.5l0,0c-11.5,6.4-24.7,8-37.4,4.4
			c-12.6-3.6-23.1-11.9-29.5-23.3C699.3,293.4,707.8,263.4,731.4,250.2z M442.3,188.8c-13.2-23.7-4.7-53.7,19-66.9
			c23.7-13.2,53.7-4.7,66.9,19c4.2,7.6,6.2,15.8,6.2,23.9c0,17.3-9.1,34-25.2,43h0C485.5,221,455.5,212.5,442.3,188.8z M518.5,239.8
			c2.3-1,4.5-2.1,6.7-3.3h0c11.6-6.5,20.9-15.4,27.9-25.7l125.9,52.5c-0.9,2.4-1.8,4.9-2.5,7.4c-2.1,7.4-3.1,15-3.1,22.5
			c0,13.8,3.5,27.5,10.4,39.9c4.2,7.5,9.5,14.2,15.6,19.9L631.6,459c-12.7-4.5-26.4-6-39.9-3.9L518.5,239.8z M579.9,493.1
			c23.7-13.2,53.7-4.7,66.9,19c4.2,7.6,6.2,15.8,6.2,23.9c0,17.3-9.1,34-25.2,43h0c-23.7,13.2-53.7,4.7-66.9-19
			C547.7,536.4,556.2,506.4,579.9,493.1z"/>
		<path class="st1" d="M112,634v4.5h9C118,637.1,115,635.6,112,634z"/>
	</g>
</g>
</svg>
